<svg xmlns="http://www.w3.org/2000/svg" xmlns:xlink="http://www.w3.org/1999/xlink" version="1.1" x="0px" y="0px" viewBox="0 0 49 61.25" enable-background="new 0 0 49 49" xml:space="preserve"><g><path d="M21.666,1.732c1.833,0.364,3.808,1.442,4.91,3.27c0.115,0.448,0.193,0.751,0.33,1.24c0.368-0.094,0.697-1.208-0.5-2.81   c0.108-0.576,0.301-1.08-0.09-1.51c-1.566-1.758-1.371-1.647-3.01-0.95c-1.597-0.668-2.929-0.274-2.55,1.211   C21.118,1.955,21.354,1.852,21.666,1.732z"/><path d="M22.506,3.752c0.18,0.2,0.44,0.42,0.76,0.63c1.719-1.015,2.899,1.815,1.27,2.9c-0.06,0.2-0.13,0.4-0.21,0.59v0.69   c1.752,0,2.277-0.073,2.9,0.15c-0.375-1.003-0.442-0.936-1.12-3.53c-0.623-1.183-2.497-2.546-4.39-2.93   c-0.607,0.236-1.198,0.582-1.37,1.21l1-0.61C22.137,2.773,21.936,3.182,22.506,3.752z"/><path d="M19.166,30.332c0.364,5.449,0.199,4.225,0.71,6.14c0.479-2.745,0.113-1.199,1.85-7.58   C21.12,29.578,20.196,30.137,19.166,30.332z"/><path d="M26.396,26.502c-0.739,0-3.41,0.11-3.41,0.11c-0.926,3.914-0.845-0.26-4.36,20.02l-0.003,0.001l-1.445,0.146   c-0.176,0.017-0.328,0.129-0.397,0.292c-0.105,0.247,0.01,0.53,0.257,0.635l1.873,0.795l2.556-6.06   c5.652-13.392,6.396-12.74,6.47-15.89h-0.05C27.396,26.512,26.896,26.502,26.396,26.502z"/><path d="M23.416,39.102l-1.74,4.13l0.96,3.61h-0.003l-1.234,0.764c-0.151,0.092-0.239,0.259-0.23,0.436   c0.014,0.269,0.241,0.473,0.509,0.459l2.032-0.105L23.416,39.102z"/><path d="M27.386,18.272l0.06,0.14c0.71,1.75,0.28,3.66-1.07,4.75c-1,0.789-3.27,0.972-3.27,2.95c1.61-0.07,3.21-0.18,4.82-0.06   c0.38-3.12,0.48-5.79,0.27-8.43L27.386,18.272z"/><path d="M32.776,13.932l-4.37,3.52l0.64,1.09c0.32,0.54,1.07,0.6,1.48,0.12l3.11-4.88l-0.46-0.11L32.776,13.932z"/><path d="M21.106,16.612c-0.31,0.26-0.57,0.56-0.77,0.91c-0.22,0.38-0.5,0.73-0.83,1.01l1.77,1c0.12,0.01,0.25,0.04,0.37,0.07   l3.74-3C24.046,15.682,22.316,15.632,21.106,16.612z"/><path d="M22.626,25.912c0.328-2.314,2.44-2.359,3.44-3.14c1.2-0.97,1.53-2.66,0.92-4.17l-3.73,3c0.178,2.19-2.617,3.296-4.01,1.58   c-0.07-0.08-0.13-0.17-0.17-0.26c-0.35-0.56-0.41-1.23-0.23-1.83l-3.68-1.48c-0.44,0.17-0.85,0.4-1.23,0.71   c-2.19,1.75-2.06,4.84-0.14,7.24C17.053,31.617,22.032,30.051,22.626,25.912z M14.826,23.922l1.18-0.95l2.75,3.41l-1.19,0.96   L14.826,23.922z"/><rect x="16.526" y="23.466" transform="matrix(0.7795 -0.6264 0.6264 0.7795 -12.0563 16.0636)" width="0.525" height="3.382"/><path d="M35.686,8.952l-0.97,0.4l-1.4,1.12l-0.04,0.43l-3.57,2.87l-7.65,6.15c0.604,0.33,0.474,2.23-0.6,2.23   c-0.238-0.074-0.769-0.312-1.02-0.42l-0.02-0.02l-1.1-0.44c-0.15,0.53-0.05,1.13,0.32,1.59c1.161,1.447,3.479,0.326,3.08-1.47   l5.43-4.37l2.1-1.69l2.23-1.8l0.03-0.02l-0.68-0.17l0.12-0.98c0-0.17,0.12-0.38,0.31-0.5c0.47-0.24,0.87-0.35,1.25-0.35   c0.05,0,0.11,0.01,0.16,0.01c0.35,0.07,0.57,0.31,0.6,0.59c0.14,0.02,0.25,0.03,0.41,0.05l1.4-1.12l0.6-0.86L35.686,8.952z"/><path d="M33.626,12.022c-0.37-0.03-0.74,0.08-1.1,0.26c-0.05,0.03-0.08,0.08-0.08,0.14l-0.07,0.54l1.27,0.32l0.09-0.23l0.04-0.84   C33.786,12.112,33.716,12.042,33.626,12.022z"/><path d="M21.316,20.082l-0.61,1.21l0.02,0.02l0.77,0.33c0.377,0.167,0.512-1.205,0.26-1.33L21.316,20.082z"/><path d="M21.56,7.899V9.4c0,1.461,2.269,1.478,2.269,0V7.773c0.104-0.242,0.206-0.523,0.28-0.814   c1.437-0.713,0.407-3.187-0.81-1.97c-0.928-0.523-1.556-1.256-1.668-1.597c-0.019-0.058-0.089-0.075-0.141-0.043   c-0.019,0.011-1.16,0.708-1.175,0.723C19.637,5.475,20.178,7.168,21.56,7.899z M20.636,5.632l1.47,0.71   c-0.48,0.3-0.79,0.5-1.18,0.27C20.526,6.382,20.446,6.102,20.636,5.632z"/><path d="M13.708,18.501l6.536,2.61l0.619-1.238l-4.653-2.646l1.291-1.643l0.395-0.501l0.6-0.76c0.23,1.33,0.4,2.61,0.5,3.91   l0.06,0.03l0.13-0.11c0.27-0.23,0.52-0.54,0.72-0.88c0.22-0.39,0.51-0.74,0.88-1.04c1.26-1.018,3.098-1.23,5,0.04l3.74-3   l-0.91-2.59c-0.71-1.995-2.827-1.62-4.29-1.62c0,2.641-3.27,2.624-3.27,0c-1.979,0-3.505-0.291-4.34,1.28l-2.52,4.74l-0.273,0.501   l-0.76,1.426C12.864,17.569,13.118,18.265,13.708,18.501z"/></g><text x="0" y="64" fill="#000000" font-size="5px" font-weight="bold" font-family="'Helvetica Neue', Helvetica, Arial-Unicode, Arial, Sans-serif">Created by Vectors Market</text><text x="0" y="69" fill="#000000" font-size="5px" font-weight="bold" font-family="'Helvetica Neue', Helvetica, Arial-Unicode, Arial, Sans-serif">from the Noun Project</text></svg>